<?xml version="1.0" encoding="utf-8"?>
<svg version="1.1" xmlns:xlink="http://www.w3.org/1999/xlink" width="42px" height="42px" xmlns="http://www.w3.org/2000/svg">
  <g transform="matrix(1 0 0 1 -26 -176 )">
    <path d="M 47 176  C 58.76 176  68 185.24  68 197  C 68 208.76  58.76 218  47 218  C 35.24 218  26 208.76  26 197  C 26 185.24  35.24 176  47 176  Z " fill-rule="nonzero" fill="#ffffff" stroke="none" />
    <path d="M 47 176.5  C 58.48 176.5  67.5 185.52  67.5 197  C 67.5 208.48  58.48 217.5  47 217.5  C 35.52 217.5  26.5 208.48  26.5 197  C 26.5 185.52  35.52 176.5  47 176.5  Z " stroke-width="1" stroke="#797979" fill="none" />
  </g>
</svg>