<?xml version="1.0" encoding="utf-8"?>
<svg version="1.1" xmlns:xlink="http://www.w3.org/1999/xlink" width="40px" height="50px" xmlns="http://www.w3.org/2000/svg">
  <defs>
    <filter x="834px" y="19px" width="40px" height="50px" filterUnits="userSpaceOnUse" id="filter2">
      <feOffset dx="1" dy="1" in="SourceAlpha" result="shadowOffsetInner" />
      <feGaussianBlur stdDeviation="2.5" in="shadowOffsetInner" result="shadowGaussian" />
      <feComposite in2="shadowGaussian" operator="atop" in="SourceAlpha" result="shadowComposite" />
      <feColorMatrix type="matrix" values="0 0 0 0 0  0 0 0 0 0  0 0 0 0 0  0 0 0 0.698039215686274 0  " in="shadowComposite" />
    </filter>
    <g id="widget3">
      <path d="M 853 62.0369284683536  C 847.2 52.4073405959099  838.5 46.6295878724437  838.5 37  C 838.5 31.9857142857143  841.4 23.5  853 23.5  C 864.6 23.5  867.5 31.9857142857143  867.5 37  C 867.5 46.6295878724437  858.8 52.4073405959099  853 62.0369284683536  Z " fill-rule="nonzero" fill="#009dd9" stroke="none" />
      <path d="M 853 63  C 847 53  838 47  838 37  C 838 31.8  841 23  853 23  C 865 23  868 31.8  868 37  C 868 47  859 53  853 63  Z M 853 61.0738569367072  C 858.6 51.8146811918198  867 46.2591757448874  867 37  C 867 32.1714285714286  864.2 24  853 24  C 841.8 24  839 32.1714285714286  839 37  C 839 46.2591757448874  847.4 51.8146811918198  853 61.0738569367072  Z " fill-rule="nonzero" fill="#ffffff" stroke="none" />
    </g>
  </defs>
  <g transform="matrix(1 0 0 1 -834 -19 )">
    <use xlink:href="#widget3" filter="url(#filter2)" />
    <use xlink:href="#widget3" />
  </g>
</svg>