<?xml version="1.0" encoding="utf-8"?>
<svg version="1.1" xmlns:xlink="http://www.w3.org/1999/xlink" width="41px" height="41px" xmlns="http://www.w3.org/2000/svg">
  <g transform="matrix(1 0 0 1 -533 -70 )">
    <path d="M 553.5 70  C 564.98 70  574 79.02  574 90.5  C 574 101.98  564.98 111  553.5 111  C 542.02 111  533 101.98  533 90.5  C 533 79.02  542.02 70  553.5 70  Z " fill-rule="nonzero" fill="#ffffff" stroke="none" />
    <path d="M 553.5 70.5  C 564.7 70.5  573.5 79.3  573.5 90.5  C 573.5 101.7  564.7 110.5  553.5 110.5  C 542.3 110.5  533.5 101.7  533.5 90.5  C 533.5 79.3  542.3 70.5  553.5 70.5  Z " stroke-width="1" stroke="#797979" fill="none" />
  </g>
</svg>